<svg width="81" height="70" viewBox="0 0 81 70" fill="none" xmlns="http://www.w3.org/2000/svg">
<line x1="4.63933" y1="69.2767" x2="73.2393" y2="69.2767" stroke="black" stroke-width="1.4" stroke-linecap="round"/>
<g filter="url(#filter0_i_13_35)">
<path d="M4.6394 36.3768C12.3929 46.4179 19.279 50.492 37.5394 46.8767C50.1394 43.3767 58.3164 32.7486 72.5394 36.3768V69.2768H4.6394V36.3768Z" fill="#E94235" fill-opacity="0.25"/>
</g>
<path d="M72.3875 28.3273C72.9042 28.0641 73.1096 27.4318 72.8464 26.9151C72.5831 26.3984 71.9508 26.1929 71.4341 26.4562L72.3875 28.3273ZM26.3394 29.3767L26.9507 30.2304L26.9663 30.2192L26.9816 30.2074L26.3394 29.3767ZM49.8251 29.3767L49.1873 30.2108L49.2068 30.2257L49.227 30.2397L49.8251 29.3767ZM3.59862 28.3009C4.54809 28.8496 5.44685 29.4057 6.32201 29.9509C7.1925 30.4931 8.04629 31.0288 8.88336 31.5212C10.5554 32.5047 12.2319 33.3593 14.0293 33.8232C17.734 34.7793 21.6736 34.0089 26.9507 30.2304L25.7281 28.523C20.7719 32.0717 17.467 32.5416 14.554 31.7898C13.0426 31.3997 11.5668 30.6633 9.94807 29.7111C9.13973 29.2357 8.31349 28.7173 7.43238 28.1684C6.55594 27.6225 5.63156 27.0503 4.64943 26.4827L3.59862 28.3009ZM26.9816 30.2074C31.5209 26.6977 34.8634 25.1294 38.0793 25.1382C41.2987 25.147 44.6435 26.7365 49.1873 30.2108L50.4629 28.5426C45.8359 25.0047 42.0231 23.049 38.0851 23.0382C34.1435 23.0274 30.3286 24.9651 25.6971 28.546L26.9816 30.2074ZM49.227 30.2397C53.9635 33.5224 57.4882 34.3349 61.0925 33.546C62.8385 33.1638 64.5475 32.4174 66.354 31.5043C67.2596 31.0465 68.206 30.5382 69.2009 30.0048C70.1993 29.4694 71.252 28.9058 72.3875 28.3273L71.4341 26.4562C70.2767 27.0459 69.2061 27.6192 68.2085 28.154C67.2074 28.6908 66.285 29.1861 65.4067 29.6301C63.6454 30.5204 62.1259 31.17 60.6434 31.4945C57.7907 32.119 54.8583 31.5875 50.4232 28.5137L49.227 30.2397Z" fill="#FABB05"/>
<path d="M70.3879 12.252C70.2086 11.7005 69.6162 11.3988 69.0647 11.5781L60.0778 14.5002C59.5264 14.6796 59.2247 15.272 59.404 15.8235C59.5833 16.3749 60.1757 16.6766 60.7272 16.4973L68.7155 13.8999L71.313 21.8882C71.4923 22.4397 72.0847 22.7414 72.6362 22.5621C73.1877 22.3828 73.4894 21.7903 73.31 21.2388L70.3879 12.252ZM48.865 49.6522L48.346 50.5649L48.865 49.6522ZM50.8046 49.0705L49.869 48.594L50.8046 49.0705ZM32.9196 40.5851L32.4006 41.4979L32.9196 40.5851ZM4.38532 54.4774L32.0789 41.4853L31.187 39.5841L3.49341 52.5762L4.38532 54.4774ZM32.4006 41.4979L48.346 50.5649L49.3841 48.7394L33.4386 39.6724L32.4006 41.4979ZM51.7403 49.547L70.325 13.0532L68.4537 12.1002L49.869 48.594L51.7403 49.547ZM48.346 50.5649C49.5607 51.2556 51.1062 50.7921 51.7403 49.547L49.869 48.594C49.7784 48.7719 49.5576 48.8381 49.3841 48.7394L48.346 50.5649ZM32.0789 41.4853C32.1818 41.437 32.3018 41.4417 32.4006 41.4979L33.4386 39.6724C32.747 39.2791 31.9074 39.2462 31.187 39.5841L32.0789 41.4853Z" fill="#4285F4"/>
<line x1="4.27888" y1="69.3" x2="4.27888" y2="0.699997" stroke="black" stroke-width="1.4" stroke-linecap="round"/>
<defs>
<filter id="filter0_i_13_35" x="4.6394" y="35.6323" width="67.9" height="33.6445" filterUnits="userSpaceOnUse" color-interpolation-filters="sRGB">
<feFlood flood-opacity="0" result="BackgroundImageFix"/>
<feBlend mode="normal" in="SourceGraphic" in2="BackgroundImageFix" result="shape"/>
<feColorMatrix in="SourceAlpha" type="matrix" values="0 0 0 0 0 0 0 0 0 0 0 0 0 0 0 0 0 0 127 0" result="hardAlpha"/>
<feOffset dy="1.4"/>
<feComposite in2="hardAlpha" operator="arithmetic" k2="-1" k3="1"/>
<feColorMatrix type="matrix" values="0 0 0 0 0.913725 0 0 0 0 0.258824 0 0 0 0 0.207843 0 0 0 1 0"/>
<feBlend mode="normal" in2="shape" result="effect1_innerShadow_13_35"/>
</filter>
</defs>
</svg>
